<svg width="1792" height="1024" viewBox="0 0 1792 1024" fill="none" xmlns="http://www.w3.org/2000/svg">
<g filter="url(#filter0_d_105_11)">
<path fill-rule="evenodd" clip-rule="evenodd" d="M685 599.5H685.5L688.5 601V603.5L692 607H702L700 609.5V613L702 616H706L708.5 618H712.5L716.5 616H718.5V617.5H720V619.5H722V621H724L725 622L728 622.5L728.5 624H736.5V623H738V622H740.5L741 621L743 620.5L745.5 619.5V618L746.5 616.5V613L748.5 612.5V614.5H751V615.5H754L759 616L758.5 618H757V619.5H755L752 619H748.5L747.5 621L743.5 622.5L741.5 624.5L736.5 628.5L733.5 632H730V633.5H720L718 636.5L712.5 638L714 640.5L716.5 642L715 643.5L712.5 644.5L711.5 646H708.5L707.5 647.5V649.5L708.5 650.5L707.5 652.5L709.5 654.5H712.5L715 652.5H716.5V654.5L718 656.5L720.5 657L723.5 657.5L725 656.5H728.5L727 658.5V659.5L726 662H724V663.5L723.5 665H722L720.5 668L719 669L718 671V672.5L719 674H723.5L725 671H727L730 674H731.5V677L729.5 678V678.5L731 679H733V681H732V683H733V682H734L735 681L736 680.5V683.5H737L738 683V682H742V685H745V684H746V685H748V687H753L752.5 686H752V685H756V686H758V687H759V688H760V686H759V685L760 684V683.5H761V684H764V685H766V683H765V681H766V679H764.5V677H766V676H765V674.5H768V673H769V672H771V671H770V670H772V669H773V667H774.5L774.268 663.5L773 663V662.5L771 662H767V659H769V657H770V655H771V654.5L772 654V653H796V655H798V656H803V655H805V656H815V657H824V657.805H826V659H827V659.5L829 660V661H831V662H832V663H837V664H840V665H843V666H845.5V667H848V668H850V669H851V670H853V671H854V672H855V674H856V676H857V679H858V681H860V683H861V684H862V686.5H863V687.5H864V689H865V691H866V692H867V694H868V699H869V732.5L868 733V744H867V757H866V764H865V769H866V772H867V775H868V799H867V800H866V801H865L865.5 802L864.5 803L864 804H885.5L885 803V802H884V800H882V792H881V788H880V780H879V775H878V774H877V769H876L875 768H874V764.5H875V761.5H873.5V755.5H875V743.5H876V740.5H877.5V729H878.5V694H880V691H882.5V689.5H884V687.5H885V685.5H891V684H892V679H893.5V677H896V675H898V673H900V671H901.5V669.5H903.5V668H905.5V666.5H908V665.5H909V663H910V661.5L912 661L912.5 659.5L915 658.5V657.5L916 657H919V656H922V655H924.5V657H927V658L930 659H939V660H938V660.808L936.5 661V662H935V664H940V665H937V666H938V667H941.5L942 669V671H947.5V672H946.5V674H948V673L950 673.5L953 673V674.5L956.5 674V672H958V673.5H960V672H962V671H963V670H964V669H966V671H967V672H968V671H969V672H971V670H972V667H973V668H977V669H976V672H977V673H978V674H977V674.5L978 675V676H985V675H989V676.5H988V677.5L989 678V679H994V680H996V681.5H997V679H998.5V677H1002.5V678H1004V679H1005.5V678H1008V676H1010V678H1013V679H1014V675H1015.5V670.5H1018V672H1022V671H1023V670H1024.5V671H1028V669H1029V670H1030V668.5H1031V669H1033V670H1034V671H1037V670H1035.5V668.5L1035 668V666H1034V664H1035V663H1036L1036.5 664L1037 664.223V666H1040V665H1043L1044 666H1050V667H1053V666H1055V667H1060.5V665H1058.5V662H1057V660.5H1060V659H1059.5V657H1058V655.5H1056.5V653H1055.5V652H1053L1052.5 650H1055.5V649L1054 648.5V647H1057.5V646.5L1056.5 646L1056 645H1054V644H1057V641.5L1055 640V638H1058V636H1056.2V632H1055V628H1058.5L1058 626H1059.5L1060 623.5V621H1058V619H1057V618H1056L1056.2 617H1051V618H1048V617H1045.5V616H1043V615H1041V614H1036V612H1032V607H1031V605H1030V604H1026V603H1029V601.5H1031.5V599H1032V596H1036.5V594.5H1039V591H1040.5V586H1039.5V584.262H1036.5V583.5L1035 583V581H1032V575H1038V573H1040V571H1042.5V570H1046V568H1047V565H1045.5L1046 564H1044V563H1043V561L1040.5 560.5L1040 557.5H1038.5V556H1036V550.5H1034V548.226H1036.5V544.5H1035L1035.5 543H1034V541.5H1032.5V540L1027 539.5V538H1026.17V537H1027V534H1026V533H1025V532H1024V531H1019.5V532H1014.5V529H1013V528L1012 527.5L1012.5 526H1010V525H1008.5L1008 526H1007V523.5H1005V520H1004V518.5L1003 518V516.5L1001 516L1000.5 513.5H997.666L997 511H994.5L994 504H992V501H989V500H986V501.5H983L979 502H976.5V500H974V501.5H973.5L973 500.5L965 500V499H967.5V498H972.5L972 496L970 495V494L971.5 493.5V492.5L973 492V491H970.5V488.5L968.5 488V486.5H966.5V485H960.5L959.5 486V484L959 476H960V474L956.5 473.5V470.5H957.5V469H958.804L959 467H960.5V466H963.5V463H961V459H959L958 458.5L957.5 457.5L956 456.5V456L953.5 456.5V458.5H949.5V460.5H947.5L947 458.5H943.5L944 460.5H942L941.5 458L940 456.5L937 453H934.5V455H932.5V456.5L930 457V456H924V452H919V450H918V449H915.5V450.5L914.5 451L914 452L913 451.5V449L911.5 448.5V451L909 450.5V448H910.5V446H909.5V444.5H908L907.5 443.5L905.5 443L905 442L903 441.5V440H902V439H900V442.709L896 443V445H900V447.5H892.5L892.268 443.5L889 443V440.5L887 440L886.5 439.5L885.5 439L883.5 438.5V437L882 436.5L881.5 438H879V440L876.252 439.5L876 438H871V437.5H868V438.5L866 439V441.5L864 442V445H861V449H859.5V450.5H857.5V449H856L856.5 445H855V444H853V442H851.5V442.5L849 443V446H847.5L847 445H844L843.5 446H842V445H840.5L840 445.5H838V444H836.5V443H834V441H833V440H831.5V441.5H828.5V443L826.5 442.5L826 441.5L824.5 441L825 444L826.5 444.5V447.5H825V447H824V448H825V450.5L823.5 451V451.5H820.5V451H817.5V449H816V451.5H812.5V452.5H811V456.5L808.5 457V461.5L811 462V463H815V465.5H813.5V466.5H811V465.5L810 465H808.5V466.5H807V465H806V467H803.5V468.5H793.5V467.5H791V466.5H789V465H787V463.5H784.5V463H780.5V467H778.5V469H777.5V471H774V472.5H771V476H772V479H771V478H770V480H767L766.5 481L768 481.5V482.5H766V484.5H766.5L767 485V486H765V484H764V483H763V481H762V482.5L761 483V484.5L759.724 484L760.019 482.5H758V482H756V486H758V487.5H761V488H763L763.5 490H762V491.5L767 492V493H765.5V497H769V498H762V497H759V497.5L757 498L757.5 499H756V500H757V502H761V503H764V504.5H762.5L766 506V507H763.5V507.5H763V509H756L755.5 510H757.5L758 511V512.5L755 513V514.5L751.5 514V513.5L749.5 513L744 514V515.5L745.5 516.5L746 518H747L748 519.5H745.5V522.5H748V524.5L752 525V526.5L754 527V528.5H750V530.5H741V531.5H739V533.5H737L736.5 534.5H734.5V538.5H737V539.5H741V543H739V541.5H736V540.5H734.5V543.5L729 544V546H725.5V549.5H728V551.5H729V552.5H716V555H712.5V557.5H713.5V559H712V561L714 561.5V562.5L716 563V569H721V570H723.5V573.5H724.5V575.5H714.5V578.5H711V581.5H705.5L705 580H699V581.201H696V583H694V584.5L692.5 585V585.5L696.5 587L697 589.5H694V590.5H692V593.5H689.5V595.5H688.5V597H687V598H685V599.5Z" stroke="white" stroke-width="2" shape-rendering="crispEdges"/>
</g>
<defs>
<filter id="filter0_d_105_11" x="-1" y="-1" width="1802" height="1034" filterUnits="userSpaceOnUse" color-interpolation-filters="sRGB">
<feFlood flood-opacity="0" result="BackgroundImageFix"/>
<feColorMatrix in="SourceAlpha" type="matrix" values="0 0 0 0 0 0 0 0 0 0 0 0 0 0 0 0 0 0 127 0" result="hardAlpha"/>
<feOffset dx="4" dy="4"/>
<feGaussianBlur stdDeviation="2"/>
<feComposite in2="hardAlpha" operator="out"/>
<feColorMatrix type="matrix" values="0 0 0 0 0 0 0 0 0 0 0 0 0 0 0 0 0 0 0.25 0"/>
<feBlend mode="normal" in2="BackgroundImageFix" result="effect1_dropShadow_105_11"/>
<feBlend mode="normal" in="SourceGraphic" in2="effect1_dropShadow_105_11" result="shape"/>
</filter>
</defs>
</svg>
